<svg width="61" height="52" viewBox="0 0 61 52" fill="none" xmlns="http://www.w3.org/2000/svg">
<circle cx="16.9449" cy="16.7163" r="16.5855" fill="#EB001B"/>
<circle cx="37.6763" cy="16.7162" r="16.5855" fill="url(#paint0_linear_51_1923)"/>
<path d="M8.27066 48.0659L8.27619 44.2458C8.27619 43.7998 8.1564 43.4515 7.91683 43.2009C7.68095 42.9466 7.3732 42.8194 6.99357 42.8194C6.77244 42.8194 6.56235 42.871 6.36333 42.9742C6.1643 43.0737 6.00213 43.2322 5.87682 43.4497C5.75151 43.6634 5.68885 43.938 5.68885 44.2734L5.16917 44.0633C5.1618 43.6395 5.24841 43.2691 5.42901 42.9521C5.61329 42.6314 5.86392 42.3827 6.18089 42.2057C6.49785 42.0288 6.85536 41.9404 7.25341 41.9404C7.87629 41.9404 8.36649 42.1302 8.724 42.5098C9.08151 42.8857 9.26026 43.3925 9.26026 44.0301L9.25473 48.0659H8.27066ZM1.12784 48.0659V42.0952H2.00687V43.6929H2.11744V48.0659H1.12784ZM4.70478 48.0659L4.7103 44.2845C4.7103 43.8274 4.59236 43.4699 4.35648 43.2119C4.1206 42.9502 3.80732 42.8194 3.41664 42.8194C3.02964 42.8194 2.71636 42.9521 2.47679 43.2175C2.23722 43.4828 2.11744 43.8348 2.11744 44.2734L1.59776 43.9638C1.59776 43.5768 1.6899 43.2304 1.87418 42.9244C2.05847 42.6185 2.30909 42.379 2.62606 42.2057C2.94303 42.0288 3.30238 41.9404 3.70412 41.9404C4.10586 41.9404 4.45599 42.0251 4.75453 42.1947C5.05307 42.3642 5.28343 42.6075 5.44559 42.9244C5.60776 43.2377 5.68885 43.6118 5.68885 44.0467L5.68332 48.0659H4.70478ZM12.3975 48.2318C11.9515 48.2318 11.5774 48.1507 11.2752 47.9885C10.9767 47.8227 10.75 47.6052 10.5952 47.3362C10.4441 47.0671 10.3686 46.7723 10.3686 46.4516C10.3686 46.1383 10.4275 45.8674 10.5455 45.6389C10.6671 45.4067 10.8366 45.2151 11.0541 45.064C11.2715 44.9092 11.5314 44.7875 11.8336 44.6991C12.1174 44.6217 12.4344 44.5554 12.7845 44.5001C13.1383 44.4411 13.4958 44.3877 13.857 44.3397C14.2182 44.2918 14.5555 44.2458 14.8687 44.2015L14.5149 44.4061C14.526 43.8753 14.4191 43.4828 14.1943 43.2285C13.9731 42.9742 13.5898 42.847 13.0443 42.847C12.6831 42.847 12.3662 42.93 12.0934 43.0958C11.8244 43.258 11.6346 43.5234 11.524 43.8919L10.5897 43.61C10.7334 43.0866 11.0117 42.6757 11.4245 42.3771C11.8373 42.0786 12.3809 41.9293 13.0554 41.9293C13.5972 41.9293 14.0616 42.027 14.4486 42.2223C14.8393 42.414 15.1194 42.7051 15.2889 43.0958C15.3737 43.2801 15.4271 43.481 15.4492 43.6984C15.4714 43.9122 15.4824 44.137 15.4824 44.3729V48.0659H14.6089V46.6341L14.8135 46.7668C14.5886 47.2496 14.2735 47.6145 13.8681 47.8614C13.4664 48.1083 12.9762 48.2318 12.3975 48.2318ZM12.5468 47.4081C12.9006 47.4081 13.2065 47.3454 13.4645 47.2201C13.7262 47.0911 13.9363 46.9234 14.0948 46.717C14.2532 46.5069 14.3564 46.2784 14.4044 46.0315C14.4596 45.8472 14.4891 45.6426 14.4928 45.4178C14.5002 45.1893 14.5039 45.0142 14.5039 44.8926L14.8466 45.0419C14.526 45.0861 14.2109 45.1285 13.9013 45.169C13.5917 45.2096 13.2987 45.2538 13.0222 45.3017C12.7458 45.3459 12.497 45.3994 12.2759 45.462C12.1137 45.5136 11.9608 45.58 11.817 45.6611C11.677 45.7421 11.5627 45.8472 11.4743 45.9762C11.3895 46.1015 11.3471 46.2581 11.3471 46.4461C11.3471 46.6083 11.3876 46.7631 11.4687 46.9105C11.5535 47.0579 11.6825 47.1777 11.8557 47.2698C12.0326 47.362 12.263 47.4081 12.5468 47.4081ZM19.1755 48.2263C18.4641 48.2263 17.8799 48.0715 17.4229 47.7619C16.9696 47.4486 16.6913 47.0118 16.5881 46.4516L17.5943 46.2913C17.6754 46.6156 17.8615 46.8736 18.1527 47.0653C18.4438 47.2533 18.805 47.3472 19.2363 47.3472C19.6454 47.3472 19.966 47.2625 20.1982 47.0929C20.4304 46.9234 20.5465 46.693 20.5465 46.4019C20.5465 46.2323 20.5078 46.096 20.4304 45.9928C20.353 45.8859 20.1927 45.7864 19.9494 45.6942C19.7099 45.6021 19.3468 45.4915 18.8603 45.3625C18.3333 45.2225 17.9186 45.0769 17.6164 44.9258C17.3142 44.7746 17.0986 44.5996 16.9696 44.4006C16.8406 44.2015 16.7761 43.9601 16.7761 43.6763C16.7761 43.3262 16.8719 43.0203 17.0636 42.7586C17.2552 42.4932 17.5224 42.2887 17.8652 42.1449C18.2116 42.0012 18.6134 41.9293 19.0704 41.9293C19.5237 41.9293 19.9292 42.0012 20.2867 42.1449C20.6442 42.2887 20.9317 42.4932 21.1491 42.7586C21.3703 43.0203 21.5011 43.3262 21.5416 43.6763L20.5355 43.8588C20.4875 43.5381 20.3327 43.2856 20.0711 43.1014C19.8131 42.9171 19.4795 42.8194 19.0704 42.8083C18.6834 42.7936 18.3683 42.8618 18.125 43.0129C17.8855 43.164 17.7657 43.3686 17.7657 43.6266C17.7657 43.7703 17.8099 43.8938 17.8984 43.997C17.9905 44.1002 18.1582 44.1978 18.4015 44.29C18.6484 44.3821 19.0059 44.4872 19.474 44.6051C20.001 44.7378 20.4157 44.8834 20.7179 45.0419C21.0238 45.1967 21.2413 45.3809 21.3703 45.5947C21.4993 45.8048 21.5638 46.0646 21.5638 46.3742C21.5638 46.9492 21.3518 47.4025 20.928 47.7342C20.5041 48.0623 19.92 48.2263 19.1755 48.2263ZM26.1167 48.0659C25.7629 48.136 25.4128 48.1636 25.0663 48.1489C24.7236 48.1378 24.4176 48.0696 24.1486 47.9443C23.8795 47.8153 23.675 47.6163 23.5349 47.3472C23.417 47.1114 23.3525 46.8736 23.3414 46.6341C23.3341 46.3908 23.3304 46.1162 23.3304 45.8103V40.4366H24.3145V45.7661C24.3145 46.0093 24.3163 46.2176 24.32 46.3908C24.3273 46.564 24.366 46.7133 24.4361 46.8386C24.5688 47.0745 24.7788 47.2127 25.0663 47.2533C25.3575 47.2938 25.7076 47.2827 26.1167 47.2201V48.0659ZM22.1196 42.9079V42.0952H26.1167V42.9079H22.1196ZM29.6679 48.2318C29.0819 48.2318 28.5696 48.1028 28.131 47.8448C27.6961 47.5831 27.357 47.2201 27.1138 46.7557C26.8705 46.2876 26.7489 45.7421 26.7489 45.1193C26.7489 44.4669 26.8687 43.903 27.1082 43.4275C27.3478 42.9484 27.6814 42.5798 28.1089 42.3218C28.5401 42.0602 29.0451 41.9293 29.6237 41.9293C30.2245 41.9293 30.7349 42.0675 31.1551 42.344C31.579 42.6204 31.8959 43.0147 32.106 43.5271C32.3198 44.0394 32.4119 44.6493 32.3824 45.357H31.3873V45.0032C31.3762 44.2697 31.227 43.7224 30.9395 43.3612C30.652 42.9963 30.2245 42.8139 29.6569 42.8139C29.0487 42.8139 28.5862 43.0092 28.2692 43.3999C27.9523 43.7906 27.7938 44.3508 27.7938 45.0806C27.7938 45.7845 27.9523 46.33 28.2692 46.717C28.5862 47.104 29.0377 47.2975 29.6237 47.2975C30.0181 47.2975 30.3608 47.2072 30.652 47.0266C30.9432 46.846 31.1717 46.5862 31.3375 46.2471L32.2829 46.5733C32.0507 47.1003 31.7006 47.5094 31.2325 47.8006C30.7681 48.0881 30.2466 48.2318 29.6679 48.2318ZM27.4621 45.357V44.5664H31.8738V45.357H27.4621ZM33.6133 48.0659V42.0952H34.4923V43.5381L34.3486 43.3501C34.4186 43.1659 34.5089 42.9963 34.6195 42.8415C34.7337 42.6867 34.8609 42.5596 35.001 42.46C35.1558 42.3347 35.3308 42.2389 35.5262 42.1726C35.7215 42.1062 35.9205 42.0675 36.1232 42.0565C36.326 42.0417 36.5158 42.0546 36.6927 42.0952V43.0184C36.4863 42.9631 36.2596 42.9484 36.0127 42.9742C35.7657 43 35.5372 43.0903 35.3271 43.2451C35.1355 43.3815 34.9862 43.5473 34.8793 43.7427C34.7761 43.938 34.7043 44.1499 34.6637 44.3784C34.6232 44.6033 34.6029 44.8336 34.6029 45.0695V48.0659H33.6133ZM40.1456 48.2318C39.5411 48.2318 39.027 48.0973 38.6031 47.8282C38.1829 47.5555 37.8623 47.1814 37.6412 46.7059C37.42 46.2305 37.3058 45.6887 37.2984 45.0806C37.3058 44.4577 37.4219 43.9104 37.6467 43.4386C37.8752 42.9631 38.2014 42.5927 38.6252 42.3274C39.0491 42.062 39.5595 41.9293 40.1566 41.9293C40.7869 41.9293 41.3287 42.0841 41.782 42.3937C42.239 42.7033 42.5449 43.1272 42.6997 43.6653L41.7267 43.9583C41.6014 43.6118 41.3969 43.3428 41.1131 43.1511C40.8329 42.9595 40.5104 42.8636 40.1456 42.8636C39.7365 42.8636 39.3992 42.9595 39.1339 43.1511C38.8685 43.3391 38.6713 43.6008 38.5423 43.9362C38.4133 44.2679 38.347 44.6493 38.3433 45.0806C38.3506 45.744 38.5036 46.2802 38.8021 46.6894C39.1044 47.0948 39.5522 47.2975 40.1456 47.2975C40.5362 47.2975 40.8606 47.209 41.1186 47.0321C41.3766 46.8515 41.5719 46.5917 41.7046 46.2526L42.6997 46.5124C42.4933 47.069 42.1708 47.4947 41.7322 47.7895C41.2937 48.0844 40.7648 48.2318 40.1456 48.2318ZM45.4713 48.2318C45.0254 48.2318 44.6513 48.1507 44.349 47.9885C44.0505 47.8227 43.8238 47.6052 43.669 47.3362C43.5179 47.0671 43.4424 46.7723 43.4424 46.4516C43.4424 46.1383 43.5013 45.8674 43.6193 45.6389C43.7409 45.4067 43.9104 45.2151 44.1279 45.064C44.3454 44.9092 44.6052 44.7875 44.9074 44.6991C45.1912 44.6217 45.5082 44.5554 45.8583 44.5001C46.2121 44.4411 46.5697 44.3877 46.9309 44.3397C47.292 44.2918 47.6293 44.2458 47.9426 44.2015L47.5887 44.4061C47.5998 43.8753 47.4929 43.4828 47.2681 43.2285C47.0469 42.9742 46.6636 42.847 46.1182 42.847C45.757 42.847 45.44 42.93 45.1673 43.0958C44.8982 43.258 44.7084 43.5234 44.5978 43.8919L43.6635 43.61C43.8072 43.0866 44.0855 42.6757 44.4983 42.3771C44.9111 42.0786 45.4547 41.9293 46.1292 41.9293C46.671 41.9293 47.1354 42.027 47.5224 42.2223C47.9131 42.414 48.1932 42.7051 48.3627 43.0958C48.4475 43.2801 48.5009 43.481 48.5231 43.6984C48.5452 43.9122 48.5562 44.137 48.5562 44.3729V48.0659H47.6827V46.6341L47.8873 46.7668C47.6625 47.2496 47.3473 47.6145 46.9419 47.8614C46.5402 48.1083 46.05 48.2318 45.4713 48.2318ZM45.6206 47.4081C45.9744 47.4081 46.2803 47.3454 46.5383 47.2201C46.8 47.0911 47.0101 46.9234 47.1686 46.717C47.3271 46.5069 47.4303 46.2784 47.4782 46.0315C47.5335 45.8472 47.5629 45.6426 47.5666 45.4178C47.574 45.1893 47.5777 45.0142 47.5777 44.8926L47.9205 45.0419C47.5998 45.0861 47.2847 45.1285 46.9751 45.169C46.6655 45.2096 46.3725 45.2538 46.096 45.3017C45.8196 45.3459 45.5708 45.3994 45.3497 45.462C45.1875 45.5136 45.0346 45.58 44.8908 45.6611C44.7508 45.7421 44.6365 45.8472 44.5481 45.9762C44.4633 46.1015 44.4209 46.2581 44.4209 46.4461C44.4209 46.6083 44.4615 46.7631 44.5425 46.9105C44.6273 47.0579 44.7563 47.1777 44.9295 47.2698C45.1064 47.362 45.3368 47.4081 45.6206 47.4081ZM49.9936 48.0659V42.0952H50.8727V43.5381L50.7289 43.3501C50.799 43.1659 50.8893 42.9963 50.9998 42.8415C51.1141 42.6867 51.2412 42.5596 51.3813 42.46C51.5361 42.3347 51.7112 42.2389 51.9065 42.1726C52.1018 42.1062 52.3009 42.0675 52.5036 42.0565C52.7063 42.0417 52.8961 42.0546 53.073 42.0952V43.0184C52.8666 42.9631 52.6399 42.9484 52.393 42.9742C52.1461 43 51.9176 43.0903 51.7075 43.2451C51.5158 43.3815 51.3666 43.5473 51.2597 43.7427C51.1565 43.938 51.0846 44.1499 51.0441 44.3784C51.0035 44.6033 50.9832 44.8336 50.9832 45.0695V48.0659H49.9936ZM56.3545 48.2318C55.798 48.2318 55.3207 48.0936 54.9226 47.8172C54.5246 47.5371 54.2168 47.1593 53.9994 46.6838C53.7856 46.2084 53.6787 45.6721 53.6787 45.075C53.6787 44.478 53.7856 43.9417 53.9994 43.4662C54.2168 42.9908 54.5246 42.6167 54.9226 42.344C55.3207 42.0675 55.7961 41.9293 56.349 41.9293C56.9129 41.9293 57.3865 42.0657 57.7698 42.3384C58.1531 42.6112 58.4425 42.9853 58.6378 43.4607C58.8368 43.9362 58.9363 44.4743 58.9363 45.075C58.9363 45.6684 58.8368 46.2047 58.6378 46.6838C58.4425 47.1593 58.1531 47.5371 57.7698 47.8172C57.3865 48.0936 56.9147 48.2318 56.3545 48.2318ZM56.4762 47.3307C56.8779 47.3307 57.2078 47.2348 57.4658 47.0432C57.7237 46.8478 57.9136 46.5806 58.0352 46.2415C58.1605 45.8988 58.2232 45.5099 58.2232 45.075C58.2232 44.6328 58.1605 44.2439 58.0352 43.9085C57.9136 43.5694 57.7256 43.3059 57.4713 43.1179C57.217 42.9263 56.8945 42.8305 56.5038 42.8305C56.0984 42.8305 55.763 42.93 55.4976 43.129C55.2359 43.328 55.0406 43.5971 54.9116 43.9362C54.7863 44.2752 54.7236 44.6549 54.7236 45.075C54.7236 45.4989 54.7881 45.8822 54.9171 46.225C55.0461 46.564 55.2396 46.8331 55.4976 47.0321C55.7593 47.2311 56.0855 47.3307 56.4762 47.3307ZM58.2232 48.0659V43.6708H58.1126V40.1049H59.1022V48.0659H58.2232Z" fill="white"/>
<defs>
<linearGradient id="paint0_linear_51_1923" x1="54.5141" y1="18.8881" x2="26.4328" y2="19.5902" gradientUnits="userSpaceOnUse">
<stop offset="0.21875" stop-color="#F79E1B"/>
<stop offset="0.838542" stop-color="#FF5F00"/>
</linearGradient>
</defs>
</svg>
