<svg width="27" height="28" viewBox="0 0 27 28" fill="none" xmlns="http://www.w3.org/2000/svg">
<path d="M25.7399 19.3174C25.1484 18.816 24.3705 18.6007 23.6031 18.7285L16.156 19.9701C16.1175 19.327 15.8594 18.7267 15.4009 18.2682C14.9056 17.7739 14.2564 17.5061 13.5468 17.5053C8.8104 17.5193 5.68577 17.5201 4.9954 17.507C4.51327 16.9697 3.82202 16.625 3.0459 16.625H1.2959C0.812898 16.625 0.420898 17.017 0.420898 17.5V26.25C0.420898 26.733 0.812898 27.125 1.2959 27.125H3.0459C3.81852 27.125 4.50715 26.7829 4.9884 26.25H13.5459C13.6071 26.25 13.6693 26.2439 13.7288 26.2308L24.5875 23.9041C25.7941 23.6451 26.67 22.5619 26.67 21.3273C26.6709 20.5511 26.3314 19.8188 25.7399 19.3174ZM3.0459 25.375H2.1709V18.375H3.0459C3.52802 18.375 3.9209 18.7679 3.9209 19.25V24.5C3.9209 24.9821 3.52802 25.375 3.0459 25.375ZM24.2218 22.1926L13.4531 24.5H5.6709V19.2622C6.7594 19.271 8.96352 19.2684 13.5511 19.2553H13.5538C13.7848 19.2553 14.0009 19.3445 14.1645 19.5072C14.3299 19.6726 14.4209 19.8923 14.4209 20.1276C14.4209 20.6089 14.0298 21 13.5485 21H9.1709C8.6879 21 8.2959 21.392 8.2959 21.875C8.2959 22.358 8.6879 22.75 9.1709 22.75H13.5485C14.3316 22.75 15.0281 22.3974 15.5094 21.8514L23.891 20.454C24.1518 20.412 24.4064 20.4811 24.6085 20.6517C24.8098 20.8232 24.9209 21.063 24.9209 21.3273C24.9209 21.742 24.6269 22.106 24.2218 22.1926ZM11.7959 16.625H15.2959C19.6376 16.625 23.1709 13.0918 23.1709 8.75C23.1709 4.40825 19.6376 0.875 15.2959 0.875H11.7959C7.45415 0.875 3.9209 4.40825 3.9209 8.75C3.9209 13.0918 7.45415 16.625 11.7959 16.625ZM21.4209 8.75C21.4209 11.5273 19.5615 13.874 17.024 14.623C18.6436 13.1792 19.6709 11.0845 19.6709 8.75C19.6709 6.4155 18.6436 4.32075 17.024 2.877C19.5615 3.626 21.4209 5.97275 21.4209 8.75ZM11.7959 2.625C15.1734 2.625 17.9209 5.3725 17.9209 8.75C17.9209 12.1275 15.1734 14.875 11.7959 14.875C8.4184 14.875 5.6709 12.1275 5.6709 8.75C5.6709 5.3725 8.4184 2.625 11.7959 2.625Z" fill="white"/>
</svg>
